<svg width="16" height="16" viewBox="0 0 16 16" fill="none" xmlns="http://www.w3.org/2000/svg">
<g clip-path="url(#clip0_2021_5740)">
<path fill-rule="evenodd" clip-rule="evenodd" d="M1.2243 7.36109C1.2243 10.9377 3.81743 13.3745 6.73014 13.8786C6.80937 13.8923 6.88512 13.9215 6.95307 13.9645C7.02101 14.0075 7.07982 14.0635 7.12614 14.1292C7.17245 14.195 7.20536 14.2692 7.223 14.3476C7.24063 14.4261 7.24264 14.5072 7.22891 14.5865C7.21517 14.6657 7.18597 14.7415 7.14296 14.8094C7.09996 14.8773 7.04399 14.9362 6.97825 14.9825C6.91251 15.0288 6.8383 15.0617 6.75984 15.0793C6.68139 15.097 6.60023 15.099 6.521 15.0852C3.1007 14.4931 0 11.6097 0 7.36109C0 5.55518 0.821293 4.13584 1.78006 3.05723C2.4674 2.28411 3.25345 1.65551 3.88557 1.17495H1.96335C1.80754 1.17495 1.65811 1.11306 1.54794 1.00289C1.43777 0.892713 1.37587 0.743286 1.37587 0.587477C1.37587 0.431669 1.43777 0.282242 1.54794 0.172068C1.65811 0.0618949 1.80754 0 1.96335 0H5.48821C5.64402 0 5.79345 0.0618949 5.90362 0.172068C6.01379 0.282242 6.07569 0.431669 6.07569 0.587477V4.11234C6.07569 4.26815 6.01379 4.41758 5.90362 4.52775C5.79345 4.63792 5.64402 4.69982 5.48821 4.69982C5.3324 4.69982 5.18298 4.63792 5.0728 4.52775C4.96263 4.41758 4.90073 4.26815 4.90073 4.11234V1.94337L4.89956 1.94572C4.22749 2.45095 3.40737 3.07016 2.69652 3.8703C1.85643 4.81496 1.2243 5.95819 1.2243 7.36109ZM14.2757 7.83695C14.2757 4.29798 11.7378 1.8764 8.86268 1.33592C8.78255 1.32233 8.70592 1.29291 8.63728 1.24938C8.56864 1.20586 8.50935 1.1491 8.46288 1.08242C8.4164 1.01574 8.38367 0.940471 8.36659 0.861006C8.34952 0.781542 8.34844 0.699472 8.36342 0.619585C8.3784 0.539699 8.40913 0.463595 8.45384 0.395714C8.49854 0.327833 8.55631 0.269534 8.62379 0.224218C8.69126 0.178902 8.76709 0.147477 8.84683 0.131777C8.92658 0.116076 9.00866 0.116413 9.08827 0.13277C12.4651 0.767245 15.5 3.63413 15.5 7.83695C15.5 9.64285 14.6787 11.061 13.7199 12.1408C13.0326 12.9139 12.2466 13.5425 11.6144 14.0231H13.5366C13.6925 14.0231 13.8419 14.085 13.9521 14.1951C14.0622 14.3053 14.1241 14.4548 14.1241 14.6106C14.1241 14.7664 14.0622 14.9158 13.9521 15.026C13.8419 15.1361 13.6925 15.198 13.5366 15.198H10.0118C9.85598 15.198 9.70655 15.1361 9.59638 15.026C9.4862 14.9158 9.42431 14.7664 9.42431 14.6106V11.0857C9.42431 10.9299 9.4862 10.7805 9.59638 10.6703C9.70655 10.5601 9.85598 10.4982 10.0118 10.4982C10.1676 10.4982 10.317 10.5601 10.4272 10.6703C10.5374 10.7805 10.5993 10.9299 10.5993 11.0857V13.2535H10.6016C11.2725 12.7459 12.0938 12.1279 12.8035 11.3266C13.6436 10.3831 14.2757 9.24102 14.2757 7.83695Z" fill="white"/>
</g>
<defs>
<clipPath id="clip0_2021_5740">
<rect width="16" height="16" fill="white"/>
</clipPath>
</defs>
</svg>
